<svg width="16" height="16" viewBox="0 0 16 16" fill="none" xmlns="http://www.w3.org/2000/svg">
<path d="M2.61527 10.6154C1.16912 10.6154 -0.000113487 9.44615 -0.000113487 8C-0.000113487 6.55385 1.16912 5.38462 2.61527 5.38462C3.35373 5.38462 4.01527 5.69231 4.49219 6.18462L9.33835 3.36923C9.26143 3.13846 9.23066 2.87692 9.23066 2.61538C9.23066 1.16923 10.3999 0 11.846 0C13.2922 0 14.4614 1.16923 14.4614 2.61538C14.4614 4.06154 13.2922 5.23077 11.846 5.23077C11.1076 5.23077 10.446 4.92308 9.96912 4.43077L5.12296 7.26154C5.1845 7.49231 5.23066 7.73846 5.23066 8C5.23066 8.26154 5.1845 8.50769 5.12296 8.75385L9.96912 11.5692C10.446 11.0769 11.1076 10.7692 11.846 10.7692C13.2922 10.7692 14.4614 11.9385 14.4614 13.3846C14.4614 14.8308 13.2922 16 11.846 16C10.3999 16 9.23066 14.8308 9.23066 13.3846C9.23066 13.1231 9.27681 12.8769 9.33835 12.6308L4.49219 9.8C4.01527 10.3077 3.35373 10.6154 2.61527 10.6154ZM2.61527 6.61539C1.84604 6.61539 1.23066 7.23077 1.23066 8C1.23066 8.76923 1.84604 9.38462 2.61527 9.38462C3.3845 9.38462 3.99989 8.76923 3.99989 8C3.99989 7.23077 3.3845 6.61539 2.61527 6.61539ZM11.846 4C12.6153 4 13.2307 3.38462 13.2307 2.61538C13.2307 1.84615 12.6153 1.23077 11.846 1.23077C11.0768 1.23077 10.4614 1.84615 10.4614 2.61538C10.4614 3.38462 11.0768 4 11.846 4ZM11.846 14.7692C12.6153 14.7692 13.2307 14.1538 13.2307 13.3846C13.2307 12.6154 12.6153 12 11.846 12C11.0768 12 10.4614 12.6154 10.4614 13.3846C10.4614 14.1538 11.0768 14.7692 11.846 14.7692Z" fill="black"/>
</svg>
