<svg width="16" height="16" viewBox="0 0 16 16" fill="none" xmlns="http://www.w3.org/2000/svg">
<path fill-rule="evenodd" clip-rule="evenodd" d="M11.3688 1.00001C10.4037 1 9.78159 1.11498 9.06844 1.46405C8.8044 1.59329 8.55669 1.74893 8.32665 1.93051C8.10546 1.75911 7.86765 1.61061 7.61454 1.48542C6.88755 1.12585 6.23352 1 5.30303 1C2.81096 1 1 3.06484 1 5.74658C1 7.77183 2.12922 9.72819 4.23256 11.6199C5.3366 12.6129 6.74621 13.5955 7.75573 14.1183L8.33333 14.4174L8.91093 14.1183C9.92045 13.5955 11.3301 12.6129 12.4341 11.6199C14.5374 9.72819 15.6667 7.77183 15.6667 5.74658C15.6667 3.09323 13.8386 1.01024 11.3688 1.00001ZM14.3333 5.74658C14.3333 7.33327 13.3908 8.96621 11.5425 10.6286C10.5348 11.5349 9.23931 12.4406 8.33333 12.9158C7.42736 12.4406 6.13188 11.5349 5.12418 10.6286C3.27588 8.96621 2.33333 7.33327 2.33333 5.74658C2.33333 3.76515 3.58909 2.33333 5.30303 2.33333C6.04285 2.33333 6.49875 2.42106 7.02342 2.68056C7.33334 2.83385 7.60725 3.03625 7.84435 3.28918L8.33489 3.81247L8.82097 3.28503C9.0634 3.02197 9.34134 2.81496 9.65462 2.66162C10.1639 2.41233 10.5913 2.33333 11.3661 2.33334C13.0588 2.34035 14.3333 3.79264 14.3333 5.74658Z" fill="#2A2425"/>
</svg>
