<svg width="16" height="16" viewBox="0 0 16 16" fill="none" xmlns="http://www.w3.org/2000/svg">
<path fill-rule="evenodd" clip-rule="evenodd" d="M3.6875 10.875C4.0672 10.875 4.375 11.1828 4.375 11.5625C4.375 11.9422 4.0672 12.25 3.6875 12.25C3.3078 12.25 3 11.9422 3 11.5625C3 11.1828 3.3078 10.875 3.6875 10.875ZM13.3125 10.875C13.6922 10.875 14 11.1828 14 11.5625C14 11.9422 13.6922 12.25 13.3125 12.25H6.4375C6.0578 12.25 5.75 11.9422 5.75 11.5625C5.75 11.1828 6.0578 10.875 6.4375 10.875H13.3125ZM3.6875 7.4375C4.0672 7.4375 4.375 7.7453 4.375 8.125C4.375 8.5047 4.0672 8.8125 3.6875 8.8125C3.3078 8.8125 3 8.5047 3 8.125C3 7.7453 3.3078 7.4375 3.6875 7.4375ZM13.3125 7.4375C13.6922 7.4375 14 7.7453 14 8.125C14 8.5047 13.6922 8.8125 13.3125 8.8125H6.4375C6.0578 8.8125 5.75 8.5047 5.75 8.125C5.75 7.7453 6.0578 7.4375 6.4375 7.4375H13.3125ZM3.6875 4C4.0672 4 4.375 4.3078 4.375 4.6875C4.375 5.0672 4.0672 5.375 3.6875 5.375C3.3078 5.375 3 5.0672 3 4.6875C3 4.3078 3.3078 4 3.6875 4ZM13.3125 4C13.6922 4 14 4.3078 14 4.6875C14 5.0672 13.6922 5.375 13.3125 5.375H6.4375C6.0578 5.375 5.75 5.0672 5.75 4.6875C5.75 4.3078 6.0578 4 6.4375 4H13.3125Z" fill="#2A2425"/>
</svg>
